<svg version="1.2" xmlns="http://www.w3.org/2000/svg" viewBox="0 0 830 830" width="830" height="830">
	<style>
		.s0 { fill: #cccccc } 
	</style>
	<path id="Path 1" class="s0" d="m 125.98 148.75 c -0.03 2.55 0.47 2.89 6.75 4.66 c 3.72 1.05 10.82 3.98 15.77 6.51 c 4.95 2.52 11.7 6.65 15 9.18 c 3.3 2.53 8.21 7.03 10.91 10 c 2.7 2.97 6.95 8.55 9.44 12.4 c 2.5 3.85 6.01 10.38 7.79 14.5 c 1.79 4.13 4.29 11.55 5.56 16.5 l 2.3 9 v 359.5 c -3.65 16.27 -5.83 24.15 -7.2 28 c -1.38 3.85 -4.58 10.83 -7.12 15.5 c -2.56 4.7 -7.32 11.35 -10.65 14.87 c -3.32 3.5 -9.63 8.73 -14.03 11.62 c -4.4 2.89 -11.15 6.49 -15 7.99 c -3.85 1.5 -9.48 3.2 -12.5 3.78 c -3.02 0.57 -6.1 1.53 -6.82 2.14 c -0.73 0.6 -1.18 2.23 -1 3.6 l 0.32 2.5 h 189 c 0.44 -3.87 -0.01 -5.58 -0.72 -6.29 c -0.7 -0.72 -3.08 -1.28 -5.28 -1.25 c -2.2 0.02 -7.26 -0.86 -11.25 -1.96 c -3.99 -1.1 -10.06 -3.41 -13.5 -5.13 c -3.44 -1.72 -8.72 -4.76 -11.74 -6.75 c -3.02 -1.99 -8.59 -6.54 -12.38 -10.12 c -3.79 -3.58 -8.83 -9.2 -11.19 -12.5 c -2.37 -3.3 -6.1 -9.83 -8.3 -14.5 c -2.2 -4.67 -4.95 -11.88 -6.1 -16 c -1.16 -4.13 -2.82 -11.77 -4.04 -15.5 v -176.5 c -0.39 -116.7 -0.23 -166.85 0.5 -166.5 c 0.58 0.27 4.56 5 8.84 10.5 c 4.29 5.5 19.73 25.07 34.32 43.5 c 14.6 18.42 61.35 77.83 103.89 132 c 42.55 54.17 88.01 111.95 101.03 128.39 c 13.03 16.44 39.77 50.08 59.43 74.75 c 21.43 26.89 36.75 45.26 38.25 45.86 h 29.75 h 28.46 v -223.73 v -231.27 c 0.95 -4.68 3.18 -12.77 4.95 -18 c 1.78 -5.23 5.25 -13.05 7.71 -17.39 c 2.47 -4.34 6.99 -10.86 10.04 -14.5 c 3.05 -3.63 8.23 -8.75 11.5 -11.37 c 3.27 -2.62 8.65 -6.08 11.95 -7.7 c 3.3 -1.62 9.15 -3.7 13 -4.62 c 3.85 -0.93 7.67 -2.01 8.5 -2.41 c 0.83 -0.4 1.5 -1.8 1.5 -3.12 v -2.39 h -172.89 q 0.27 2.5 1.27 3.5 c 0.55 0.58 4.37 1.71 8.5 2.5 c 4.53 0.88 11.06 3.22 16.5 5.93 c 4.95 2.46 11.7 6.66 15 9.34 c 3.3 2.68 8.31 7.99 11.13 11.8 c 2.83 3.81 6.76 10.19 8.75 14.18 c 1.99 3.99 4.51 9.61 5.6 12.5 c 1.09 2.89 2.99 9.3 4.21 14.25 l 1.45 7.73 v 338.5 c -0.77 -0.83 -16.44 -20.4 -34.81 -43.5 c -18.37 -23.1 -38.33 -48.27 -44.36 -55.92 c -6.04 -7.66 -53.27 -66.79 -104.97 -131.41 c -51.7 -64.62 -104.93 -131.25 -118.3 -148.08 c -13.36 -16.82 -26.74 -33.63 -29.75 -37.34 l -5.45 -6.75 h -140 z"/>
</svg>
