<?xml version="1.0" encoding="UTF-8"?>
<svg xmlns="http://www.w3.org/2000/svg" xmlns:svg="http://www.w3.org/2000/svg" xmlns:xlink="http://www.w3.org/1999/xlink" width="2045.6" height="2048" viewBox="0 0 1160.1 1161.41" preserveAspectRatio="xMidYMid meet">
	<g transform="matrix(1, 0, 0, 1, 457.4756164550781, 365.2496643066406)">
		<path transform="matrix(1.1352981328964233, 0, 0, 1.1352980136871338, -457.4756164550781, -366.38494873046875)" d="M-0,1020.51 C-0,1015.45 2.52,1013 7.72,1013 C10.86,1013 12,1012.6 12,1011.5 C12,1010.39 13.17,1010 16.5,1010 C18.98,1010 21,1009.55 21,1009 C21,1008.45 22.13,1008 23.5,1008 C24.88,1008 26,1007.6 26,1007.12 C26,1006.63 28.48,1005.92 31.5,1005.54 C34.53,1005.17 37,1004.44 37,1003.93 C37,1003.42 37.67,1003 38.5,1003 C39.33,1003 40,1002.55 40,1002 C40,1001.45 40.9,1001 42,1001 C43.11,1001 44,1000.33 44,999.5 C44,998.58 44.94,998 46.43,998 C47.76,998 49.53,997.33 50.36,996.5 C51.18,995.67 52.34,995 52.93,995 C53.52,995 54,994.55 54,994 C54,993.45 54.9,993 56,993 C57.1,993 58,992.56 58,992.02 C58,991.48 59.13,990.76 60.5,990.41 C61.88,990.07 63,989.38 63,988.89 C63,988.4 63.85,988 64.89,988 C66.06,988 67.02,987.07 67.39,985.57 C67.73,984.23 68.9,982.85 70,982.5 C71.1,982.15 72,981.45 72,980.93 C72,980.42 72.87,980 73.93,980 C75,980 76.14,979.12 76.48,978.05 C76.82,976.98 77.98,975.82 79.05,975.48 C80.12,975.14 81,974.43 81,973.89 C81,972.28 87.53,965 88.98,965 C89.47,965 90.18,963.99 90.58,962.75 C90.97,961.51 92.12,959.77 93.14,958.88 C94.16,957.99 95,956.95 95,956.56 C95,956.17 95.56,955.23 96.25,954.46 C99.36,950.99 100,949.99 100,948.54 C100,947.69 100.45,947 101,947 C101.55,947 102,946.15 102,945.11 C102,944.07 102.68,942.95 103.5,942.64 C104.32,942.32 105,941.15 105,940.03 C105,938.91 105.45,938 106,938 C106.55,938 107,937.1 107,936 C107,934.9 107.45,934 108,934 C108.55,934 109,933.1 109,932 C109,930.9 109.44,930 109.99,930 C110.53,930 111.26,928.2 111.62,926 C111.97,923.8 112.65,922 113.13,922 C113.61,922 114,920.88 114,919.5 C114,918.13 114.45,917 115,917 C115.55,917 116,916.1 116,915 C116,913.9 116.45,913 117,913 C117.55,913 118,911.65 118,910 C118,908.35 118.43,907 118.95,907 C119.47,907 120.21,904.3 120.58,901 C120.95,897.7 121.65,895 122.13,895 C122.61,895 123,893.42 123,891.5 C123,889.58 123.45,888 124,888 C124.55,888 125,886.2 125,884 C125,881.8 125.39,880 125.87,880 C126.35,880 127.06,875.95 127.45,871 C127.83,866.05 128.57,862 129.08,862 C129.58,862 130,857.95 130,853 C130,847.67 130.41,844 131,844 C131.66,844 132,823.17 132,783.5 C132,743.83 132.34,723 133,723 C133.55,723 134,721.42 134,719.5 C134,717.58 133.55,716 133,716 C131.55,716 131.77,710.26 133.25,709.66 C134.19,709.28 134.13,708.87 133,708 C131.87,707.13 131.81,706.72 132.75,706.34 C133.53,706.02 134,703.83 134,700.5 C134,697.21 133.52,694.94 132.75,694.58 C131.75,694.12 131.75,693.88 132.75,693.42 C134.23,692.72 134.44,689 133,689 C132.38,689 132,684 132,676 C132,668 132.38,663 133,663 C134.44,663 134.23,660.26 132.75,659.66 C131.81,659.28 131.87,658.87 133,658 C134.13,657.13 134.19,656.72 133.25,656.34 C132.25,655.94 132,606.51 132,413.92 C132,253.31 131.66,172 131,172 C130.44,172 130,169.17 130,165.5 C130,161.93 129.6,159 129.12,159 C128.63,159 127.92,155.18 127.53,150.5 C127.14,145.82 126.41,142 125.91,142 C125.41,142 125,140.2 125,138 C125,135.8 124.55,134 124,134 C123.45,134 123,132.88 123,131.5 C123,130.13 122.61,129 122.13,129 C121.65,129 121.02,126.88 120.73,124.28 C120.44,121.69 119.7,119.4 119.1,119.2 C118.49,119 118,117.97 118,116.92 C118,115.86 117.55,115 117,115 C116.45,115 116,113.65 116,112 C116,110.35 115.55,109 115,109 C114.45,109 114,108.1 114,107 C114,105.9 113.56,105 113.01,105 C112.47,105 111.74,103.21 111.39,101.03 C110.97,98.38 110.13,96.86 108.88,96.46 C107.84,96.13 107,95 107,93.93 C107,92.87 106.59,92 106.08,92 C105.57,92 104.86,90.65 104.5,89 C104.14,87.35 103.43,86 102.92,86 C102.41,86 102,85.13 102,84.07 C102,83 101.15,81.86 100.1,81.53 C98.93,81.16 97.96,79.61 97.56,77.47 C97.2,75.56 96.55,74 96.11,74 C94.63,74 91,70.28 91,68.77 C91,67.95 89.88,66.44 88.5,65.4 C87.13,64.37 86,63.16 86,62.72 C86,61.87 84.36,59.7 82.2,57.7 C76.89,52.79 76,51.75 76,50.47 C76,49.68 74.76,48.73 73.25,48.36 C70.66,47.72 67,44.56 67,42.97 C67,42.57 65.66,41.98 64.03,41.66 C61.93,41.24 60.87,40.31 60.42,38.53 C60.02,36.94 59.08,36 57.89,36 C56.85,36 56,35.6 56,35.11 C56,34.62 54.88,33.93 53.5,33.59 C52.13,33.24 51,32.52 51,31.98 C51,31.44 50.1,31 49,31 C47.9,31 47,30.55 47,30 C47,29.45 46.33,29 45.5,29 C44.67,29 44,28.6 44,28.11 C44,27.62 42.42,26.93 40.5,26.57 C38.4,26.17 37,25.33 37,24.45 C37,23.65 36.1,23 35,23 C33.9,23 33,22.55 33,22 C33,21.45 32.33,21 31.5,21 C30.67,21 30,20.61 30,20.13 C30,19.65 28.1,19.01 25.77,18.7 C23.45,18.38 21.38,17.65 21.19,17.06 C20.99,16.48 19.3,16 17.42,16 C15.54,16 14,15.55 14,15 C14,14.45 12.43,14 10.5,14 C8.06,14 7,13.55 7,12.5 C7,11.57 6.06,11 4.5,11 C2.17,11 2,10.67 2,6 C2,1 2,1 124.95,1 C247.91,1 247.91,1 250.45,3.55 C251.85,4.95 253,6.49 253,6.98 C253,7.47 253.9,8.15 255,8.5 C256.28,8.91 257,10.01 257,11.57 C257,12.91 257.42,14 257.93,14 C258.45,14 259.14,14.88 259.48,15.95 C259.82,17.02 260.98,18.18 262.05,18.52 C263.12,18.86 264,20 264,21.07 C264,22.13 264.45,23 265,23 C265.55,23 266,23.69 266,24.53 C266,25.37 266.67,26.32 267.5,26.64 C268.33,26.95 269,27.87 269,28.67 C269,29.48 270.58,31.62 272.5,33.44 C274.42,35.25 276,37.67 276,38.8 C276,39.97 276.85,41.13 277.95,41.48 C279.02,41.82 280.18,42.98 280.52,44.05 C280.86,45.12 281.55,46 282.07,46 C282.58,46 283,46.67 283,47.5 C283,48.33 283.45,49 284,49 C284.55,49 285,49.67 285,50.5 C285,51.33 285.42,52 285.93,52 C286.45,52 287.18,53 287.57,54.23 C287.96,55.46 289.57,57.66 291.14,59.13 C292.71,60.6 294,62.3 294,62.9 C294,63.51 294.45,64 295,64 C295.55,64 296,64.66 296,65.47 C296,66.27 297.58,68.51 299.5,70.43 C301.42,72.36 303,74.6 303,75.42 C303,77 307.51,82 308.93,82 C309.4,82 310.07,83.55 310.42,85.44 C310.83,87.63 311.79,89.12 313.03,89.51 C314.12,89.85 315,90.84 315,91.7 C315,92.56 316.58,94.75 318.5,96.56 C320.42,98.38 322,100.58 322,101.45 C322,102.32 323.58,104.56 325.5,106.43 C327.42,108.3 329,110.55 329,111.43 C329,112.31 330.58,114.56 332.5,116.43 C334.42,118.3 336,120.16 336,120.55 C336,120.94 336.84,121.99 337.86,122.88 C338.88,123.77 340.03,125.51 340.42,126.75 C340.82,127.99 341.55,129 342.07,129 C342.58,129 343,129.47 343,130.05 C343,130.62 344.01,132.17 345.25,133.5 C349.04,137.55 350,138.87 350,140.02 C350,140.64 351.58,142.62 353.5,144.44 C355.42,146.25 357,148.25 357,148.87 C357,149.49 357.45,150 358,150 C358.55,150 359,150.47 359,151.04 C359,152.13 360,153.49 363.75,157.5 C364.99,158.83 366,160.4 366,161 C366,162.13 366.97,163.46 370.75,167.5 C371.99,168.83 373,170.38 373,170.95 C373,171.53 373.4,172 373.89,172 C374.38,172 375.06,173.1 375.39,174.43 C375.73,175.77 376.9,177.15 378,177.5 C379.1,177.85 380,178.9 380,179.83 C380,180.76 381.13,182.37 382.5,183.4 C383.88,184.44 385,185.79 385,186.42 C385,187.05 385.9,188.21 387,189 C388.1,189.79 389,190.82 389,191.29 C389,191.76 389.56,192.77 390.25,193.54 C393.22,196.85 394,197.98 394,198.96 C394,199.53 394.45,200 395,200 C395.55,200 396,200.47 396,201.04 C396,202.13 397,203.49 400.75,207.5 C401.99,208.83 403,210.6 403,211.45 C403,212.3 403.42,213 403.93,213 C404.45,213 405.14,213.88 405.48,214.95 C405.82,216.02 406.98,217.18 408.05,217.52 C409.12,217.86 410,219 410,220.07 C410,221.13 410.45,222 411,222 C411.55,222 412,222.61 412,223.36 C412,224.11 413.13,225.56 414.5,226.6 C415.88,227.63 417,229.06 417,229.79 C417,230.51 418.13,232.14 419.5,233.41 C420.88,234.69 422,236.24 422,236.86 C422,237.49 422.45,238 423,238 C423.55,238 424,238.47 424,239.05 C424,239.62 425.01,241.17 426.25,242.5 C430.03,246.54 431,247.87 431,249 C431,249.6 432.01,251.17 433.25,252.5 C437,256.51 438,257.87 438,258.96 C438,259.53 438.45,260 439,260 C439.55,260 440,260.51 440,261.14 C440,261.76 441.13,263.31 442.5,264.59 C443.88,265.86 445,267.49 445,268.21 C445,268.94 446.13,270.37 447.5,271.4 C448.88,272.44 450,273.89 450,274.64 C450,275.39 450.45,276 451,276 C451.55,276 452,276.87 452,277.93 C452,279 452.88,280.14 453.95,280.48 C455.02,280.82 456.18,281.98 456.52,283.05 C456.86,284.12 457.55,285 458.07,285 C458.58,285 459,285.7 459,286.55 C459,287.4 460.01,289.17 461.25,290.5 C465,294.51 466,295.87 466,296.96 C466,297.53 466.45,298 467,298 C467.55,298 468,298.47 468,299.05 C468,299.62 469.13,301.22 470.5,302.59 C471.88,303.97 473,305.65 473,306.32 C473,307 473.9,308.21 475,309 C476.1,309.79 477,310.97 477,311.61 C477,312.26 477.67,313.05 478.5,313.36 C479.33,313.68 480,314.75 480,315.75 C480,316.74 480.96,318.22 482.12,319.03 C485.93,321.67 487,323.1 487,325.57 C487,326.91 487.43,328 487.95,328 C489.45,328 494,332.93 494,334.55 C494,335.35 494.45,336 495,336 C495.55,336 496,336.47 496,337.05 C496,337.62 497.13,339.22 498.5,340.59 C499.88,341.97 501,343.65 501,344.32 C501,345 501.9,346.21 503,347 C504.1,347.79 505,349.02 505,349.72 C505,350.42 505.42,351 505.93,351 C506.45,351 507.18,352 507.57,353.23 C508.32,355.57 513.58,361 515.11,361 C515.6,361 516,362.09 516,363.43 C516,365.9 517.07,367.33 520.88,369.97 C522.04,370.78 523,372.32 523,373.4 C523,374.48 524.51,376.74 526.35,378.43 C528.2,380.12 530.03,382.51 530.42,383.75 C530.81,384.99 531.55,386 532.07,386 C532.58,386 533,386.58 533,387.28 C533,387.98 533.9,389.21 535,390 C536.1,390.79 537,392 537,392.68 C537,393.35 538.13,395.03 539.5,396.41 C540.88,397.78 542,399.38 542,399.95 C542,400.53 542.45,401 543,401 C543.55,401 544,401.65 544,402.45 C544,404.07 548.55,409 550.05,409 C550.57,409 551,410.09 551,411.43 C551,413.9 552.07,415.33 555.88,417.97 C557.04,418.78 558,420.04 558,420.76 C558,422.12 558.86,423.34 562.75,427.5 C563.99,428.83 565,430.19 565,430.53 C565,430.87 565.56,431.77 566.25,432.54 C569.22,435.85 570,436.98 570,437.96 C570,438.53 570.45,439 571,439 C571.55,439 572,439.47 572,440.04 C572,441.13 573,442.49 576.75,446.5 C577.99,447.83 579,449.6 579,450.45 C579,451.3 579.42,452 579.93,452 C580.45,452 581.14,452.88 581.48,453.95 C581.82,455.02 582.98,456.18 584.05,456.52 C585.12,456.86 586,458 586,459.07 C586,460.13 586.45,461 587,461 C587.55,461 588,461.69 588,462.53 C588,463.37 588.67,464.32 589.5,464.64 C590.33,464.95 591,465.96 591,466.87 C591,467.78 592.13,469.37 593.5,470.4 C594.88,471.44 596,472.79 596,473.42 C596,474.05 596.9,475.21 598,476 C599.1,476.79 600,477.81 600,478.27 C600,478.72 601.13,480.22 602.5,481.59 C603.88,482.97 605,484.76 605,485.58 C605,486.4 606.46,488.6 608.25,490.48 C612.99,495.45 614,496.78 614,498.04 C614,498.66 615.58,500.7 617.5,502.57 C619.42,504.44 621,506.44 621,507.03 C621,507.61 622.01,509.17 623.25,510.5 C627.2,514.72 628,515.88 628,517.39 C628,518.2 628.9,519.15 630,519.5 C631.1,519.85 632.27,521.23 632.61,522.57 C632.94,523.9 633.62,525 634.11,525 C634.6,525 635,525.47 635,526.05 C635,526.62 636.01,528.17 637.25,529.5 C641.06,533.57 642,534.87 642,536.06 C642,536.68 643.29,538.4 644.86,539.87 C646.43,541.34 648.04,543.54 648.43,544.77 C648.82,546 649.55,547 650.07,547 C650.58,547 651,547.58 651,548.28 C651,548.98 651.9,550.21 653,551 C654.1,551.79 655,553 655,553.68 C655,555.13 659.66,560 661.05,560 C661.57,560 662,561.09 662,562.43 C662,564.9 663.07,566.33 666.88,568.97 C668.04,569.78 669,571.32 669,572.4 C669,573.48 670.51,575.74 672.35,577.43 C674.2,579.12 676.03,581.51 676.42,582.75 C676.81,583.99 677.55,585 678.07,585 C678.58,585 679,585.58 679,586.28 C679,586.98 679.9,588.21 681,589 C682.1,589.79 683,591 683,591.68 C683,592.35 684.13,594.03 685.5,595.41 C686.88,596.78 688,598.4 688,599 C688,599.6 689.01,601.17 690.25,602.5 C694,606.51 695,607.87 695,608.96 C695,609.53 695.45,610 696,610 C696.55,610 697,610.51 697,611.14 C697,611.76 698.13,613.31 699.5,614.59 C700.88,615.86 702,617.49 702,618.21 C702,618.94 703.13,620.37 704.5,621.4 C705.88,622.44 707,623.89 707,624.64 C707,625.39 707.45,626 708,626 C708.55,626 709,626.87 709,627.93 C709,629 709.88,630.14 710.95,630.48 C712.02,630.82 713.18,631.98 713.52,633.05 C713.86,634.12 714.55,635 715.07,635 C715.58,635 716,636.09 716,637.43 C716,639 716.72,640.09 718.04,640.51 C719.25,640.9 720.32,642.34 720.66,644.05 C720.98,645.65 722.08,647.21 723.12,647.54 C724.15,647.87 725,648.78 725,649.57 C725,650.36 725.42,651 725.93,651 C726.45,651 727.18,652 727.57,653.23 C727.96,654.46 729.57,656.66 731.14,658.13 C732.71,659.6 734,661.3 734,661.9 C734,662.51 734.45,663 735,663 C735.55,663 736,663.65 736,664.45 C736,666.07 740.55,671 742.05,671 C742.57,671 743,672.09 743,673.43 C743,675.88 744.08,677.34 747.8,679.91 C748.92,680.69 750.12,682.83 750.46,684.66 C750.81,686.5 751.45,688 751.89,688 C753.37,688 757,691.72 757,693.23 C757,694.05 758.13,695.56 759.5,696.6 C760.88,697.63 762,699.28 762,700.26 C762,701.23 763.58,703.56 765.5,705.43 C767.42,707.3 769,709.34 769,709.96 C769,711.13 769.95,712.44 773.75,716.5 C774.99,717.83 776,719.28 776,719.73 C776,720.19 776.9,721.21 778,722 C779.1,722.79 780,724.03 780,724.75 C780,725.47 780.67,726.32 781.5,726.64 C782.33,726.95 783,727.86 783,728.65 C783,729.44 784.01,731.17 785.25,732.5 C789.04,736.55 790,737.87 790,739.02 C790,739.64 791.58,741.62 793.5,743.44 C795.42,745.25 797,747.67 797,748.8 C797,749.97 797.85,751.13 798.95,751.48 C800.02,751.82 801.18,752.98 801.52,754.05 C801.86,755.12 802.55,756 803.07,756 C803.58,756 804,756.67 804,757.5 C804,758.33 804.45,759 805,759 C805.55,759 806,759.48 806,760.07 C806,760.66 806.56,761.77 807.25,762.54 C809.94,765.54 811,766.94 811,767.5 C811,767.83 812.01,769.17 813.25,770.5 C817.11,774.63 818,775.87 818.02,777.21 C818.03,777.92 819.61,779.85 821.52,781.49 C823.43,783.14 825,785.33 825,786.37 C825,788.21 828.46,792 830.13,792 C830.59,792 831.27,793.21 831.64,794.69 C832.01,796.17 833.82,798.88 835.66,800.72 C837.5,802.56 839,804.63 839,805.31 C839,806 839.9,807.21 841,808 C842.1,808.79 843,810.02 843,810.72 C843,811.42 843.45,812 844,812 C844.66,812 845,705.5 845,494.5 C845,283.5 844.66,177 844,177 C843.41,177 843,173.33 843,168 C843,162.67 842.59,159 842,159 C841.45,159 841,156.98 841,154.5 C841,152.02 840.61,150 840.13,150 C839.65,150 838.94,145.95 838.55,141 C838.17,136.05 837.43,132 836.92,132 C836.42,132 836,130.2 836,128 C836,125.8 835.55,124 835,124 C834.45,124 834,123.32 834,122.5 C834,121.68 833.59,121 833.1,121 C832.6,121 831.88,118.3 831.5,115 C831.12,111.7 830.4,109 829.9,109 C829.41,109 829,108.1 829,107 C829,105.9 828.55,105 828,105 C827.45,105 827,104.32 827,103.5 C827,102.68 826.59,102 826.09,102 C825.6,102 824.89,99.83 824.52,97.17 C824.1,94.11 823.15,91.83 821.93,90.95 C820.87,90.18 820,88.76 820,87.78 C820,86.8 819.55,86 819,86 C818.45,86 818,85.1 818,84 C818,82.9 817.6,82 817.11,82 C816.62,82 815.93,80.88 815.59,79.5 C815.24,78.13 814.52,77 813.98,77 C813.44,77 813,76.3 813,75.45 C813,74.6 811.88,72.78 810.5,71.41 C809.13,70.03 808,68.35 808,67.68 C808,67 807.1,65.79 806,65 C804.9,64.21 804,62.98 804,62.28 C804,61.58 803.55,61 803,61 C802.45,61 802,60.21 802,59.24 C802,58.27 800.43,56.14 798.52,54.49 C796.61,52.85 795.03,51.04 795.02,50.47 C794.99,49.04 791.27,46 789.56,46 C788.77,46 787.86,45.12 787.52,44.05 C787.18,42.98 786.02,41.82 784.95,41.48 C783.88,41.14 783,40.45 783,39.93 C783,39.42 782.33,39 781.5,39 C780.67,39 780,38.52 780,37.93 C780,36.25 777.73,34.4 774.74,33.65 C773.23,33.27 772,32.52 772,31.98 C772,31.44 771.33,31 770.5,31 C769.67,31 769,30.55 769,30 C769,29.45 768.1,29 767,29 C765.9,29 765,28.57 765,28.05 C765,27.52 763.42,26.8 761.5,26.43 C759.5,26.06 758,25.18 758,24.39 C758,23.62 757.33,23 756.5,23 C755.67,23 755,22.55 755,22 C755,21.45 754.1,21 753,21 C751.9,21 751,20.59 751,20.09 C751,19.6 748.75,18.88 746,18.5 C743.25,18.12 741,17.4 741,16.91 C741,16.41 738.97,16 736.5,16 C734.03,16 732,15.55 732,15 C732,14.45 729.53,14 726.5,14 C722.28,14 721,13.65 721,12.5 C721,11.68 720.52,11 719.93,11 C716.12,11 714.95,5.64 718.16,2.86 C720.25,1.05 725.03,1 870.91,1.25 C1021.5,1.5 1021.5,1.5 1021.8,5.13 C1021.99,7.41 1021.53,9.32 1020.55,10.3 C1019.7,11.16 1019,12.34 1019,12.93 C1019,13.56 1016.74,14 1013.5,14 C1010.47,14 1008,14.45 1008,15 C1008,15.55 1006.42,16 1004.5,16 C1002.58,16 1001,16.41 1001,16.91 C1001,17.4 998.75,18.12 996,18.5 C993.25,18.88 991,19.6 991,20.09 C991,20.59 990.1,21 989,21 C987.9,21 987,21.45 987,22 C987,22.55 985.88,23 984.5,23 C982.94,23 982,23.57 982,24.5 C982,25.34 981.11,26 979.97,26 C978.85,26 977.68,26.67 977.36,27.5 C977.05,28.33 975.93,29 974.89,29 C973.85,29 973,29.45 973,30 C973,30.55 972.52,31 971.93,31 C971.34,31 970.18,31.67 969.36,32.5 C968.53,33.33 967.02,34 966,34 C964.96,34 963.83,34.97 963.44,36.2 C962.6,38.85 960.59,41 958.95,41 C958.3,41 956.02,42.8 953.88,45 C951.75,47.2 949.55,49 949,49 C948.45,49 948,49.65 948,50.45 C948,51.77 945.87,54.19 941.55,57.79 C940.7,58.5 940,60.02 940,61.17 C940,63.11 936.64,67 934.97,67 C934.57,67 933.99,68.31 933.67,69.92 C933.32,71.65 932.25,73.1 931.04,73.49 C929.72,73.91 929,75 929,76.57 C929,77.91 928.56,79 928.02,79 C927.48,79 926.76,80.13 926.41,81.5 C926.07,82.88 925.38,84 924.89,84 C924.4,84 924,85.13 924,86.5 C924,87.88 923.55,89 923,89 C922.45,89 922,89.68 922,90.5 C922,91.32 921.56,92 921.02,92 C920.48,92 919.76,93.13 919.41,94.5 C919.07,95.88 918.38,97 917.89,97 C917.4,97 917,98.13 917,99.5 C917,100.88 916.55,102 916,102 C915.45,102 915,102.68 915,103.5 C915,104.32 914.61,105 914.13,105 C913.65,105 912.96,107.25 912.59,110 C912.23,112.75 911.5,115 910.97,115 C910.43,115 910,116.35 910,118 C910,119.65 909.55,121 909,121 C908.45,121 908,122.35 908,124 C908,125.65 907.55,127 907,127 C906.45,127 906,128.13 906,129.5 C906,130.88 905.6,132 905.12,132 C904.63,132 903.92,135.38 903.53,139.5 C903.15,143.63 902.42,147 901.91,147 C901.41,147 901,149.25 901,152 C901,154.75 900.55,157 900,157 C899.44,157 899,159.81 899,163.42 C899,167.66 898.58,169.97 897.75,170.25 C896.75,170.58 896.44,257.09 896.22,597.33 C895.94,1024 895.94,1024 841.91,1024 C802.92,1024 787.26,1023.68 785.68,1022.84 C782.63,1021.22 780,1018.02 780,1015.91 C780,1014.94 779.1,1013.85 778,1013.5 C776.9,1013.15 776,1012.32 776,1011.65 C776,1010.99 775.1,1009.79 774,1009 C772.9,1008.21 772,1007 772,1006.32 C772,1005.65 770.88,1003.97 769.5,1002.59 C768.13,1001.22 767,999.62 767,999.05 C767,998.47 766.55,998 766,998 C765.45,998 765,997.35 765,996.55 C765,994.93 760.45,990 758.95,990 C758.43,990 758,988.91 758,987.57 C758,985.1 756.93,983.67 753.12,981.03 C751.96,980.22 751,978.74 751,977.75 C751,976.75 750.33,975.68 749.5,975.36 C748.67,975.05 748,974.26 748,973.61 C748,972.97 747.1,971.79 746,971 C744.9,970.21 744,968.82 744,967.92 C744,967.02 742.88,965.44 741.5,964.4 C740.13,963.37 739,961.96 739,961.26 C739,960.57 738.55,960 738,960 C737.45,960 737,959.34 737,958.53 C737,957.73 735.42,955.49 733.5,953.57 C731.58,951.64 730,949.38 730,948.53 C730,947.69 729.58,947 729.07,947 C728.55,947 727.86,946.12 727.52,945.05 C727.18,943.98 726.02,942.82 724.95,942.48 C723.88,942.14 723,941 723,939.93 C723,938.87 722.55,938 722,938 C721.45,938 721,937.39 721,936.64 C721,935.89 719.88,934.44 718.5,933.4 C717.13,932.37 716,930.94 716,930.21 C716,929.49 714.88,927.86 713.5,926.59 C712.13,925.31 711,923.5 711,922.57 C711,921.63 709.42,919.38 707.5,917.56 C705.58,915.75 704,913.33 704,912.2 C704,911.03 703.15,909.87 702.05,909.52 C700.98,909.18 699.82,908.02 699.48,906.95 C699.14,905.88 698.45,905 697.93,905 C697.42,905 697,904.49 697,903.87 C697,903.24 696.16,902.01 695.14,901.12 C694.12,900.23 692.97,898.49 692.58,897.25 C692.18,896.01 691.45,895 690.93,895 C690.42,895 689.99,894.44 689.98,893.75 C689.97,893.06 688.39,891.15 686.48,889.51 C684.57,887.86 683,885.6 683,884.48 C683,883.36 682.04,881.78 680.88,880.97 C677.13,878.38 676,876.91 676,874.65 C676,873.44 675.04,871.78 673.88,870.97 C670.25,868.46 669,866.93 669,865 C669,863.97 668.1,862.85 667,862.5 C665.9,862.15 665,861.22 665,860.43 C665,859.64 664.58,859 664.07,859 C663.55,859 662.82,858 662.43,856.77 C662.04,855.54 660.43,853.34 658.86,851.87 C657.29,850.4 656,848.49 656,847.63 C656,846.77 654.48,844.54 652.61,842.68 C650.75,840.82 648.89,838.22 648.47,836.9 C647.7,834.47 644.4,831 642.85,831 C642.38,831 642,830.1 642,829 C642,827.9 641.56,827 641.02,827 C640.48,827 639.76,825.89 639.42,824.54 C639.08,823.18 637.95,821.8 636.9,821.47 C635.86,821.14 635,820.16 635,819.3 C635,818.44 633.42,816.25 631.5,814.44 C629.58,812.62 628,810.41 628,809.52 C628,808.63 626.88,806.86 625.5,805.59 C624.13,804.31 623,802.74 623,802.09 C623,801.44 621.99,799.81 620.75,798.47 C614.83,792.03 614,791 614,790.04 C614,789.47 613.56,789 613.02,789 C612.48,789 611.76,787.88 611.41,786.5 C611.07,785.13 610.38,784 609.89,784 C609.4,784 609,783.53 609,782.95 C609,782.38 607.99,780.83 606.75,779.5 C602.89,775.37 602,774.13 601.98,772.79 C601.97,772.08 600.39,770.15 598.48,768.51 C596.57,766.86 595,764.73 595,763.76 C595,762.79 594.55,762 594,762 C593.45,762 593,761.36 593,760.57 C593,759.78 592.08,758.84 590.96,758.49 C589.75,758.1 588.68,756.66 588.34,754.95 C588.02,753.35 586.92,751.79 585.88,751.46 C584.85,751.13 584,750.22 584,749.43 C584,748.64 583.58,748 583.07,748 C582.55,748 581.82,747 581.43,745.77 C581.04,744.54 579.43,742.34 577.86,740.87 C576.29,739.4 575,737.49 575,736.63 C575,735.77 573.48,733.54 571.61,731.68 C569.75,729.82 567.89,727.22 567.47,725.9 C567.05,724.58 565.88,722.77 564.86,721.88 C563.84,720.99 563,719.96 563,719.59 C563,718.85 561.71,717.2 558.25,713.5 C557.01,712.17 556,710.58 556,709.96 C556,709.34 554.42,707.3 552.5,705.43 C550.58,703.56 549,701.23 549,700.26 C549,699.28 547.88,697.63 546.5,696.6 C545.13,695.56 544,694.05 544,693.23 C544,691.73 540.38,688 538.93,688 C538.5,688 537.84,686.54 537.45,684.75 C536.77,681.69 533.71,678 531.85,678 C531.38,678 531,676.91 531,675.57 C531,673.1 529.93,671.67 526.12,669.03 C524.96,668.22 524,666.74 524,665.75 C524,664.75 523.33,663.68 522.5,663.36 C521.67,663.05 521,662.26 521,661.61 C521,660.97 520.1,659.79 519,659 C517.9,658.21 517,657 517,656.32 C517,655.65 515.88,653.97 514.5,652.59 C513.13,651.22 512,649.6 512,649 C512,648.4 510.99,646.83 509.75,645.5 C506,641.49 505,640.13 505,639.04 C505,638.47 504.55,638 504,638 C503.45,638 503,637.52 503,636.93 C503,636.34 502.44,635.23 501.75,634.46 C498.98,631.38 498,630.05 498,629.41 C498,629.04 497.16,628.01 496.14,627.12 C495.12,626.23 493.93,624.38 493.5,623 C493.06,621.63 491.2,619.12 489.35,617.43 C487.51,615.74 486,613.48 486,612.4 C486,611.32 485.04,609.78 483.88,608.97 C480.25,606.46 479,604.93 479,603 C479,601.97 478.1,600.85 477,600.5 C475.9,600.15 475,599.22 475,598.43 C475,597.64 474.55,597 474,597 C473.45,597 473,596.21 473,595.24 C473,594.27 471.43,592.14 469.52,590.49 C467.61,588.85 466.03,586.7 466.02,585.73 C466.01,584.76 464.42,582.44 462.5,580.57 C460.58,578.7 459,576.68 459,576.08 C459,575.49 458.6,575 458.11,575 C457.62,575 456.93,573.88 456.59,572.5 C456.24,571.13 455.52,570 454.98,570 C454.44,570 454,569.53 454,568.95 C454,568.38 452.88,566.78 451.5,565.41 C450.13,564.03 449,562.25 449,561.45 C449,560.65 448.55,560 448,560 C447.45,560 447,559.51 447,558.92 C447,558.32 445.42,556.3 443.5,554.43 C441.58,552.56 440,550.23 440,549.26 C440,548.28 438.88,546.63 437.5,545.6 C436.13,544.56 435,542.98 435,542.08 C435,541.18 434.1,539.79 433,539 C431.9,538.21 431,537.03 431,536.39 C431,535.74 430.33,534.95 429.5,534.64 C428.67,534.32 428,533.25 428,532.25 C428,531.26 427.06,529.78 425.91,528.97 C421.46,525.84 420,524.19 420,522.27 C420,521.18 418.88,519.44 417.5,518.4 C416.13,517.37 415,515.94 415,515.22 C415,513.88 414.13,512.65 410.25,508.5 C409.01,507.17 408,505.81 408,505.47 C408,505.13 407.44,504.23 406.75,503.46 C403.78,500.15 403,499.02 403,498.04 C403,497.47 402.55,497 402,497 C401.45,497 401,496.52 401,495.93 C401,495.34 400.44,494.23 399.75,493.46 C396.77,490.13 396,489.02 396,488 C396,487.4 394.99,485.83 393.75,484.5 C390.15,480.66 389,479.14 389,478.26 C389,477.81 388.1,476.79 387,476 C385.9,475.21 385,473.97 385,473.25 C385,472.53 384.33,471.68 383.5,471.36 C382.67,471.05 382,470.1 382,469.26 C382,467.7 378.37,464 376.85,464 C376.38,464 376,462.91 376,461.57 C376,459.1 374.93,457.67 371.12,455.03 C369.96,454.22 369,452.77 369,451.81 C369,450.85 367.42,448.49 365.5,446.57 C363.58,444.64 362,442.36 362,441.5 C362,440.64 361.33,439.68 360.5,439.36 C359.67,439.05 359,438.16 359,437.39 C359,436.63 358.55,436 358,436 C357.45,436 357,435.32 357,434.48 C357,433.65 355.42,431.44 353.5,429.57 C351.58,427.7 350,425.66 350,425.04 C350,423.87 349.05,422.56 345.25,418.5 C344.01,417.17 343,415.62 343,415.05 C343,414.47 342.6,414 342.11,414 C341.62,414 340.94,412.9 340.61,411.57 C340.27,410.23 339.1,408.85 338,408.5 C336.9,408.15 336,407.1 336,406.17 C336,405.24 334.88,403.63 333.5,402.6 C332.13,401.56 330.99,399.77 330.98,398.61 C330.97,397.45 329.39,395.15 327.48,393.51 C325.57,391.86 324,389.6 324,388.48 C324,387.36 323.04,385.78 321.88,384.97 C318.25,382.46 317,380.93 317,379 C317,377.97 316.1,376.85 315,376.5 C313.9,376.15 313,375.22 313,374.43 C313,373.64 312.58,373 312.07,373 C311.55,373 310.82,372 310.43,370.77 C310.04,369.54 308.43,367.34 306.86,365.87 C305.29,364.4 304,362.49 304,361.63 C304,360.77 302.48,358.54 300.61,356.68 C298.75,354.82 296.89,352.23 296.47,350.92 C296.06,349.61 294.43,347.34 292.86,345.87 C291.29,344.4 290,342.7 290,342.1 C290,341.49 289.56,341 289.02,341 C288.48,341 287.76,339.88 287.41,338.5 C287.07,337.13 286.38,336 285.89,336 C285.4,336 285,335.51 285,334.92 C285,334.32 283.42,332.3 281.5,330.43 C279.58,328.56 278,326.32 278,325.45 C278,324.58 276.42,322.38 274.5,320.56 C272.58,318.75 271,316.56 271,315.7 C271,314.84 270.14,313.86 269.1,313.53 C268.05,313.2 266.92,311.82 266.58,310.46 C266.24,309.11 265.52,308 264.98,308 C264.44,308 264,307.53 264,306.95 C264,306.38 262.88,304.78 261.5,303.41 C260.13,302.03 259,299.8 259,298.45 C259,297.1 258.57,296 258.05,296 C256.55,296 252,291.07 252,289.45 C252,288.65 251.55,288 251,288 C250.45,288 250,287.51 250,286.9 C250,286.3 248.71,284.6 247.14,283.13 C245.57,281.66 243.96,279.46 243.57,278.23 C243.18,277 242.45,276 241.93,276 C241.42,276 241,275.36 241,274.57 C241,273.78 240.1,272.85 239,272.5 C237.9,272.15 237,271.03 237,270 C237,268.07 235.75,266.54 232.12,264.03 C230.96,263.22 230,261.64 230,260.52 C230,259.4 228.43,257.14 226.52,255.49 C224.61,253.85 223.03,251.55 223.02,250.39 C223.01,249.23 221.88,247.44 220.5,246.4 C219.13,245.37 218,243.94 218,243.21 C218,242.49 216.88,240.86 215.5,239.59 C214.13,238.31 213,236.76 213,236.14 C213,235.51 212.55,235 212,235 C211.45,235 211,234.53 211,233.96 C211,232.87 210,231.51 206.25,227.5 C205.01,226.17 204,224.6 204,224 C204,223.4 202.88,221.78 201.5,220.41 C200.13,219.03 199,217.35 199,216.68 C199,216 198.1,214.79 197,214 C195.9,213.21 195,212.03 195,211.39 C195,210.74 194.32,209.95 193.5,209.64 C192.68,209.32 192,208.33 192,207.43 C192,206.54 190.73,204.61 189.17,203.15 C187.61,201.69 186.03,199.26 185.65,197.75 C185.19,195.91 184.31,195 182.98,195 C180.5,195 179.77,728.33 182.25,729.34 C183.19,729.72 183.13,730.13 182,731 C180.87,731.87 180.81,732.28 181.75,732.66 C182.73,733.06 183,744.69 183,786.08 C183,815.19 183.38,839 183.85,839 C184.32,839 185.02,844.74 185.41,851.75 C185.8,858.76 186.54,864.65 187.06,864.83 C187.58,865.02 188,866.7 188,868.58 C188,870.46 188.45,872 189,872 C189.55,872 190,873.8 190,876 C190,878.2 190.39,880 190.87,880 C191.35,880 192.05,883.15 192.43,887 C192.81,890.85 193.54,894 194.06,894 C194.58,894 195,895.35 195,897 C195,898.65 195.45,900 196,900 C196.55,900 197,900.67 197,901.5 C197,902.33 197.39,903 197.87,903 C198.35,903 199.04,905.25 199.41,908 C199.77,910.75 200.5,913 201.03,913 C201.57,913 202,913.9 202,915 C202,916.1 202.45,917 203,917 C203.55,917 204,917.67 204,918.5 C204,919.33 204.45,920 205,920 C205.55,920 206,921.13 206,922.5 C206,923.88 206.41,925 206.92,925 C207.43,925 208.16,926.46 208.55,928.25 C208.95,930.04 210.11,932.23 211.13,933.12 C212.16,934.01 213,935.47 213,936.37 C213,937.27 213.42,938 213.93,938 C214.45,938 215.18,939 215.57,940.23 C215.96,941.46 217.57,943.66 219.14,945.13 C220.71,946.6 222,948.51 222,949.38 C222,950.25 224.25,953.18 227,955.91 C229.75,958.63 232,961.12 232,961.45 C232,961.78 234.39,964.4 237.3,967.27 C240.22,970.15 242.9,973.29 243.27,974.25 C243.64,975.21 244.67,976 245.57,976 C246.46,976 248.46,977.35 250,979 C251.54,980.65 253.23,982 253.75,982 C255.16,982 259,985.56 259,986.87 C259,987.49 259.67,988 260.5,988 C261.33,988 262,988.45 262,989 C262,989.55 262.91,990 264.03,990 C265.15,990 266.32,990.67 266.64,991.5 C266.95,992.33 268.07,993 269.11,993 C270.15,993 271,993.45 271,994 C271,994.55 271.67,995 272.5,995 C273.33,995 274,995.4 274,995.89 C274,996.38 275.58,997.07 277.5,997.43 C279.6,997.83 281,998.67 281,999.55 C281,1000.35 281.9,1001 283,1001 C284.1,1001 285,1001.45 285,1002 C285,1002.55 285.67,1003 286.5,1003 C287.33,1003 288,1003.4 288,1003.88 C288,1004.37 290.48,1005.08 293.5,1005.46 C296.52,1005.83 299,1006.56 299,1007.07 C299,1007.58 300.58,1008 302.5,1008 C304.42,1008 306,1008.45 306,1009 C306,1009.55 307.58,1010 309.5,1010 C311.94,1010 313,1010.45 313,1011.5 C313,1012.72 314.64,1013 321.78,1013 C331.84,1013 334,1014.33 334,1020.51 C334,1024 334,1024 167,1024 C0,1024 0,1024 -0,1020.51 Z" style="fill:#cccccc;" />
	</g>
</svg>
