<?xml version="1.0" encoding="UTF-8"?>
<svg version="1.1" xmlns="http://www.w3.org/2000/svg" width="1000" height="1000">
<path d="M0 0 C116.49 0 232.98 0 353 0 C353.33 1.32 353.66 2.64 354 4 C354.66 4 355.32 4 356 4 C356.33 5.65 356.66 7.3 357 9 C357.99 9 358.98 9 360 9 C360.66 10.65 361.32 12.3 362 14 C362.66 14 363.32 14 364 14 C365.4606285 16.64738916 366 17.89448334 366 21 C366.99 21 367.98 21 369 21 C369 21.66 369 22.32 369 23 C369.66 23 370.32 23 371 23 C371.4125 23.928125 371.825 24.85625 372.25 25.8125 C373.97242637 28.9497766 375.19922655 29.97185371 378 32 C378 32.99 378 33.98 378 35 C378.66 35 379.32 35 380 35 C382.29648649 37.5614657 383 38.47967572 383 42 C383.66 42 384.32 42 385 42 C386.625 43.375 386.625 43.375 388 45 C388 45.66 388 46.32 388 47 C388.66 47 389.32 47 390 47 C390 48.32 390 49.64 390 51 C390.66 51 391.32 51 392 51 C394.48614447 52.86460835 395.02680927 54.08936422 395.9375 57.125 C396.288125 58.07375 396.63875 59.0225 397 60 C399.03243548 60.96877057 399.03243548 60.96877057 401 61 C401 62.32 401 63.64 401 65 C401.66 65 402.32 65 403 65 C405.29648649 67.5614657 406 68.47967572 406 72 C406.99 72 407.98 72 409 72 C409 72.99 409 73.98 409 75 C409.99 75.33 410.98 75.66 412 76 C413.80967349 78.64490741 414.98472371 80.95417113 416 84 C416.66 84 417.32 84 418 84 C418 85.32 418 86.64 418 88 C418.99 88 419.98 88 421 88 C423.97192627 90.2726495 424.89965742 91.56518216 425.75 95.25 C425.8325 96.1575 425.915 97.065 426 98 C426.99 98 427.98 98 429 98 C429.33 99.32 429.66 100.64 430 102 C430.66 102 431.32 102 432 102 C432.33 103.65 432.66 105.3 433 107 C433.99 107 434.98 107 436 107 C436.33 108.65 436.66 110.3 437 112 C438.32 112.33 439.64 112.66 441 113 C441 114.32 441 115.64 441 117 C441.66 117 442.32 117 443 117 C443.33 118.32 443.66 119.64 444 121 C444.99 121 445.98 121 447 121 C447.33 122.98 447.66 124.96 448 127 C449.32 127 450.64 127 452 127 C452.66 128.98 453.32 130.96 454 133 C454.66 133 455.32 133 456 133 C456 133.66 456 134.32 456 135 C456.66 135 457.32 135 458 135 C458 136.32 458 137.64 458 139 C458.639375 139.268125 459.27875 139.53625 459.9375 139.8125 C462 141 462 141 463 144 C463.66 144 464.32 144 465 144 C465.103125 144.639375 465.20625 145.27875 465.3125 145.9375 C465.539375 146.618125 465.76625 147.29875 466 148 C466.99 148.33 467.98 148.66 469 149 C469 150.32 469 151.64 469 153 C469.99 153 470.98 153 472 153 C472.433125 153.9590625 472.433125 153.9590625 472.875 154.9375 C473.82823451 157.15206079 473.82823451 157.15206079 476 158 C476.12375 158.804375 476.2475 159.60875 476.375 160.4375 C476.72567164 163.15983399 476.72567164 163.15983399 479.0625 164.3125 C479.701875 164.539375 480.34125 164.76625 481 165 C481 165.99 481 166.98 481 168 C481.66 168 482.32 168 483 168 C483.103125 168.639375 483.20625 169.27875 483.3125 169.9375 C483.539375 170.618125 483.76625 171.29875 484 172 C484.99 172.33 485.98 172.66 487 173 C487.33 174.65 487.66 176.3 488 178 C489.32 178.33 490.64 178.66 492 179 C492 179.99 492 180.98 492 182 C492.66 182 493.32 182 494 182 C495.35278115 183.98689731 496.68568305 185.98745218 498 188 C498.66 188.33 499.32 188.66 500 189 C500 189.99 500 190.98 500 192 C500.66 192 501.32 192 502 192 C502.94401042 193.79036458 503.88802083 195.58072917 504.83203125 197.37109375 C505.99019799 199.32267987 505.99019799 199.32267987 509 200 C509 200.99 509 201.98 509 203 C509.66 203 510.32 203 511 203 C511 204.32 511 205.64 511 207 C511.61875 207.04125 512.2375 207.0825 512.875 207.125 C513.57625 207.41375 514.2775 207.7025 515 208 C516.25 211.0625 516.25 211.0625 517 214 C517.66 214 518.32 214 519 214 C519 214.99 519 215.98 519 217 C519.66 217 520.32 217 521 217 C521 217.66 521 218.32 521 219 C521.66 219 522.32 219 523 219 C523.33 219.99 523.66 220.98 524 222 C526.00016466 223.20882096 526.00016466 223.20882096 528 224 C528 225.98 528 227.96 528 230 C529.32 230.33 530.64 230.66 532 231 C532 231.66 532 232.32 532 233 C532.99 233.33 533.98 233.66 535 234 C535 235.32 535 236.64 535 238 C535.99 238.33 536.98 238.66 538 239 C538.6875 241.0625 538.6875 241.0625 539 243 C539.99 243 540.98 243 542 243 C542.33 244.32 542.66 245.64 543 247 C543.66 247 544.32 247 545 247 C545.33 248.32 545.66 249.64 546 251 C546.66 251 547.32 251 548 251 C549.625 252.1875 549.625 252.1875 551 254 C551.1875 256.6875 551.1875 256.6875 551 259 C552.32 259 553.64 259 555 259 C556.4606285 261.64738916 557 262.89448334 557 266 C557.66 266 558.32 266 559 266 C559.33 267.32 559.66 268.64 560 270 C560.99 270 561.98 270 563 270 C563.33 270.99 563.66 271.98 564 273 C564.66 273.33 565.32 273.66 566 274 C566.72693904 275.97888961 567.39816251 277.97954558 568 280 C568.66 280 569.32 280 570 280 C570.33 281.32 570.66 282.64 571 284 C571.99 284 572.98 284 574 284 C574 285.65 574 287.3 574 289 C574.598125 289.04125 575.19625 289.0825 575.8125 289.125 C579.07563511 290.43025405 579.49480805 292.92689977 581 296 C582.051875 296.495 582.051875 296.495 583.125 297 C583.74375 297.33 584.3625 297.66 585 298 C585.144375 298.99 585.28875 299.98 585.4375 301 C585.623125 301.99 585.80875 302.98 586 304 C588.46255685 305.45291273 588.46255685 305.45291273 591 306 C591 306.99 591 307.98 591 309 C591.66 309 592.32 309 593 309 C593 309.66 593 310.32 593 311 C593.66 311 594.32 311 595 311 C595 312.32 595 313.64 595 315 C595.66 315 596.32 315 597 315 C597 315.66 597 316.32 597 317 C597.99 317.33 598.98 317.66 600 318 C600 318.99 600 319.98 600 321 C600.66 321 601.32 321 602 321 C602 321.66 602 322.32 602 323 C602.66 323 603.32 323 604 323 C604 324.32 604 325.64 604 327 C605.32 327.66 606.64 328.32 608 329 C608 329.66 608 330.32 608 331 C608.66 331 609.32 331 610 331 C610.28875 331.639375 610.5775 332.27875 610.875 332.9375 C611.82823451 335.15206079 611.82823451 335.15206079 614 336 C614.33 336.99 614.66 337.98 615 339 C615.78375 339.78375 616.5675 340.5675 617.375 341.375 C619.81675556 343.81675556 621.43086473 345.94431553 623 349 C623 349.66 623 350.32 623 351 C623.99 351.33 624.98 351.66 626 352 C626 352.99 626 353.98 626 355 C626.66 355 627.32 355 628 355 C629.625 356.375 629.625 356.375 631 358 C631 358.66 631 359.32 631 360 C631.66 360 632.32 360 633 360 C633 360.99 633 361.98 633 363 C633.66 363 634.32 363 635 363 C635 363.99 635 364.98 635 366 C635.66 366 636.32 366 637 366 C637 366.66 637 367.32 637 368 C637.66 368 638.32 368 639 368 C639.33 369.32 639.66 370.64 640 372 C640.66 372 641.32 372 642 372 C642 372.99 642 373.98 642 375 C643.32 375.33 644.64 375.66 646 376 C646.33 377.98 646.66 379.96 647 382 C648.32 382.33 649.64 382.66 651 383 C651 384.32 651 385.64 651 387 C651.99 387 652.98 387 654 387 C654.33 387.99 654.66 388.98 655 390 C655.66 390.33 656.32 390.66 657 391 C657.33 391.99 657.66 392.98 658 394 C658.474375 394.474375 658.94875 394.94875 659.4375 395.4375 C661.15484932 397.15484932 661.92231011 398.84462022 663 401 C663.66 401.33 664.32 401.66 665 402 C665 402.66 665 403.32 665 404 C665.66 404 666.32 404 667 404 C671 409.29411765 671 409.29411765 671 413 C672.32 413 673.64 413 675 413 C675.268125 413.7425 675.53625 414.485 675.8125 415.25 C676.94406435 417.87046481 678.28817158 419.7434989 680 422 C680 422.66 680 423.32 680 424 C680.66 424 681.32 424 682 424 C682 424.99 682 425.98 682 427 C683.32 427.33 684.64 427.66 686 428 C686.33 429.65 686.66 431.3 687 433 C688.32 433.33 689.64 433.66 691 434 C691 435.32 691 436.64 691 438 C691.66 438 692.32 438 693 438 C693 438.99 693 439.98 693 441 C694.32 441.33 695.64 441.66 697 442 C697.0825 442.94875 697.165 443.8975 697.25 444.875 C697.4975 445.90625 697.745 446.9375 698 448 C699.95021083 449.22527948 699.95021083 449.22527948 702 450 C702.33 450.99 702.66 451.98 703 453 C703.66 453 704.32 453 705 453 C705 453.99 705 454.98 705 456 C705.8971875 456.3403125 705.8971875 456.3403125 706.8125 456.6875 C710.37392142 458.82435285 711.61293533 461.93557217 713 465.75 C713.33 466.4925 713.66 467.235 714 468 C714.99 468.33 715.98 468.66 717 469 C717 469.66 717 470.32 717 471 C717.66 471 718.32 471 719 471 C719.33 472.65 719.66 474.3 720 476 C720.66 476 721.32 476 722 476 C722 476.66 722 477.32 722 478 C722.66 478 723.32 478 724 478 C724 478.66 724 479.32 724 480 C724.66 480 725.32 480 726 480 C729 484.38461538 729 484.38461538 729 487 C729.99 487.33 730.98 487.66 732 488 C732.6875 490.0625 732.6875 490.0625 733 492 C733.66 492 734.32 492 735 492 C735 492.66 735 493.32 735 494 C735.99 494 736.98 494 738 494 C738 495.65 738 497.3 738 499 C738.9590625 499.4021875 738.9590625 499.4021875 739.9375 499.8125 C742 501 742 501 743 504 C743.66 504 744.32 504 745 504 C745 504.99 745 505.98 745 507 C745.99 507.33 746.98 507.66 748 508 C752 513.37142857 752 513.37142857 752 516 C752.66 516 753.32 516 754 516 C754 516.99 754 517.98 754 519 C754.66 519 755.32 519 756 519 C756 519.99 756 520.98 756 522 C756.99 522 757.98 522 759 522 C763 528.75 763 528.75 763 531 C763.99 531 764.98 531 766 531 C766.4125 531.9075 766.825 532.815 767.25 533.75 C768.80943248 537.01895698 768.80943248 537.01895698 771.1875 539.1875 C771.785625 539.785625 772.38375 540.38375 773 541 C773 541.99 773 542.98 773 544 C773.66 544 774.32 544 775 544 C775 544.66 775 545.32 775 546 C775.66 546 776.32 546 777 546 C777.1546875 546.9590625 777.1546875 546.9590625 777.3125 547.9375 C777.539375 548.618125 777.76625 549.29875 778 550 C778.99 550.33 779.98 550.66 781 551 C781 551.66 781 552.32 781 553 C781.66 553 782.32 553 783 553 C783.33 554.98 783.66 556.96 784 559 C784.61875 559.12375 785.2375 559.2475 785.875 559.375 C788 560 788 560 790 562 C790 563.32 790 564.64 790 566 C790.66 566 791.32 566 792 566 C792 566.66 792 567.32 792 568 C793.32 568.33 794.64 568.66 796 569 C796.33 570.65 796.66 572.3 797 574 C797.66 574 798.32 574 799 574 C799.9765625 575.79036458 800.953125 577.58072917 801.9296875 579.37109375 C802.91410024 581.16618315 802.91410024 581.16618315 805 582 C805 582.66 805 583.32 805 584 C805.66 584 806.32 584 807 584 C807.433125 584.94875 807.86625 585.8975 808.3125 586.875 C809.79302201 590.20041937 809.79302201 590.20041937 813 592 C813 593.32 813 594.64 813 596 C814.32 596.33 815.64 596.66 817 597 C817 597.66 817 598.32 817 599 C817.66 599 818.32 599 819 599 C819.1546875 599.9590625 819.1546875 599.9590625 819.3125 600.9375 C819.539375 601.618125 819.76625 602.29875 820 603 C820.99 603.33 821.98 603.66 823 604 C823.33 606.31 823.66 608.62 824 611 C825.32 611 826.64 611 828 611 C828 611.99 828 612.98 828 614 C828.66 614 829.32 614 830 614 C830.474375 614.804375 830.94875 615.60875 831.4375 616.4375 C832.79983672 619.2918076 832.79983672 619.2918076 836 620 C836 621.32 836 622.64 836 624 C836.66 624 837.32 624 838 624 C838 624.99 838 625.98 838 627 C838.66 627 839.32 627 840 627 C840 627.66 840 628.32 840 629 C840.66 629 841.32 629 842 629 C842.33 630.65 842.66 632.3 843 634 C843.66 634 844.32 634 845 634 C845 634.66 845 635.32 845 636 C845.66 636 846.32 636 847 636 C848.02611949 637.65071396 849.02308143 639.31970006 850 641 C850.8353125 641.804375 850.8353125 641.804375 851.6875 642.625 C853 644 853 644 853 647 C853.99 647.33 854.98 647.66 856 648 C858.36506843 650.00121175 858.9893322 650.96799661 860 654 C860.66 654.33 861.32 654.66 862 655 C862 655.99 862 656.98 862 658 C862.66 658 863.32 658 864 658 C864 658.66 864 659.32 864 660 C864.66 660 865.32 660 866 660 C866 660.66 866 661.32 866 662 C866.66 662 867.32 662 868 662 C868 663.32 868 664.64 868 666 C868.99 666.33 869.98 666.66 871 667 C871 667.99 871 668.98 871 670 C871.66 670 872.32 670 873 670 C873 670.66 873 671.32 873 672 C873.66 672 874.32 672 875 672 C875 673.32 875 674.64 875 676 C875.99 676 876.98 676 878 676 C878.2475 676.804375 878.495 677.60875 878.75 678.4375 C879.72238859 681.171081 879.72238859 681.171081 882.125 681.8125 C882.74375 681.874375 883.3625 681.93625 884 682 C884.12375 683.423125 884.12375 683.423125 884.25 684.875 C884.65074923 688.10461791 884.65074923 688.10461791 887.0625 689.375 C887.701875 689.58125 888.34125 689.7875 889 690 C889 690.99 889 691.98 889 693 C889.99 693 890.98 693 892 693 C892 694.32 892 695.64 892 697 C892.99 697 893.98 697 895 697 C895.33 698.65 895.66 700.3 896 702 C896.99 702 897.98 702 899 702 C899.33 703.65 899.66 705.3 900 707 C900.66 707 901.32 707 902 707 C902.66 708.65 903.32 710.3 904 712 C904.66 712 905.32 712 906 712 C906 712.66 906 713.32 906 714 C906.66 714 907.32 714 908 714 C908 714.99 908 715.98 908 717 C908.99 717.33 909.98 717.66 911 718 C911 718.99 911 719.98 911 721 C911.99 721.33 912.98 721.66 914 722 C914.33 723.98 914.66 725.96 915 728 C916.32 728 917.64 728 919 728 C919 728.99 919 729.98 919 731 C919.804375 731.20625 920.60875 731.4125 921.4375 731.625 C922.283125 732.07875 923.12875 732.5325 924 733 C924.8125 736.125 924.8125 736.125 925 739 C925.66 739 926.32 739 927 739 C927 739.66 927 740.32 927 741 C927.66 741 928.32 741 929 741 C929.94401042 742.79036458 930.88802083 744.58072917 931.83203125 746.37109375 C932.99019799 748.32267987 932.99019799 748.32267987 936 749 C936 750.32 936 751.64 936 753 C936.66 753 937.32 753 938 753 C938 753.99 938 754.98 938 756 C938.61875 756.04125 939.2375 756.0825 939.875 756.125 C940.57625 756.41375 941.2775 756.7025 942 757 C942.70381157 758.98723268 943.3711811 760.98777953 944 763 C944.99 763.33 945.98 763.66 947 764 C947.33 764.99 947.66 765.98 948 767 C948.515625 767.515625 949.03125 768.03125 949.5625 768.5625 C950.036875 769.036875 950.51125 769.51125 951 770 C951 770.66 951 771.32 951 772 C951.66 772 952.32 772 953 772 C953.2475 772.969375 953.495 773.93875 953.75 774.9375 C954.1625 775.948125 954.575 776.95875 955 778 C957.03243548 778.96877057 957.03243548 778.96877057 959 779 C959 779.99 959 780.98 959 782 C959.66 782 960.32 782 961 782 C961.33 783.65 961.66 785.3 962 787 C962.99 787.33 963.98 787.66 965 788 C965 788.99 965 789.98 965 791 C966.32 791.33 967.64 791.66 969 792 C969 792.66 969 793.32 969 794 C969.66 794 970.32 794 971 794 C971.268125 794.78375 971.53625 795.5675 971.8125 796.375 C972.84814432 799.28114923 972.84814432 799.28114923 976 801 C976 802.32 976 803.64 976 805 C976.66 805 977.32 805 978 805 C978 805.66 978 806.32 978 807 C979.32 807.33 980.64 807.66 982 808 C982.268125 809.134375 982.53625 810.26875 982.8125 811.4375 C983.204375 812.613125 983.59625 813.78875 984 815 C984.99 815.33 985.98 815.66 987 816 C987 816.99 987 817.98 987 819 C987.99 819 988.98 819 990 819 C990.33 819.99 990.66 820.98 991 822 C991.66 822.33 992.32 822.66 993 823 C993.625 826.0625 993.625 826.0625 994 829 C995.32 829.33 996.64 829.66 998 830 C998.33 831.32 998.66 832.64 999 834 C999.66 834 1000.32 834 1001 834 C1001 834.99 1001 835.98 1001 837 C1001.99 837 1002.98 837 1004 837 C1004.33 838.65 1004.66 840.3 1005 842 C1005.66 842 1006.32 842 1007 842 C1007.33 843.32 1007.66 844.64 1008 846 C1008.99 846 1009.98 846 1011 846 C1014.875 852.625 1014.875 852.625 1016 856 C1016.66 856 1017.32 856 1018 856 C1018 856.66 1018 857.32 1018 858 C1018.66 858 1019.32 858 1020 858 C1020 858.66 1020 859.32 1020 860 C1020.66 860 1021.32 860 1022 860 C1022.268125 860.763125 1022.53625 861.52625 1022.8125 862.3125 C1023.95800967 864.90496926 1024.99711522 866.08815544 1027 868 C1027 868.66 1027 869.32 1027 870 C1027.66 870 1028.32 870 1029 870 C1029.4021875 871.2065625 1029.4021875 871.2065625 1029.8125 872.4375 C1030.4003125 873.7059375 1030.4003125 873.7059375 1031 875 C1031.99 875.33 1032.98 875.66 1034 876 C1034 877.32 1034 878.64 1034 880 C1034.99 880 1035.98 880 1037 880 C1037.33 881.32 1037.66 882.64 1038 884 C1038.99 884 1039.98 884 1041 884 C1041 885.65 1041 887.3 1041 889 C1041.99 889 1042.98 889 1044 889 C1045.24609375 890.609375 1045.24609375 890.609375 1046.4375 892.75 C1047.92809918 895.30788621 1049.1369718 897.1369718 1051.25 899.25 C1053.16907351 901.16907351 1053.6213833 902.34968309 1054 905 C1054.66 905 1055.32 905 1056 905 C1056 905.66 1056 906.32 1056 907 C1056.66 907 1057.32 907 1058 907 C1058 907.99 1058 908.98 1058 910 C1058.61875 910.04125 1059.2375 910.0825 1059.875 910.125 C1060.57625 910.41375 1061.2775 910.7025 1062 911 C1062.71706982 912.98248715 1063.38290413 914.98415349 1064 917 C1064.99 917.66 1065.98 918.32 1067 919 C1067 919.66 1067 920.32 1067 921 C1067.66 921 1068.32 921 1069 921 C1069 922.32 1069 923.64 1069 925 C1069.66 925 1070.32 925 1071 925 C1071 925.66 1071 926.32 1071 927 C1071.99 927 1072.98 927 1074 927 C1074 928.32 1074 929.64 1074 931 C1075.32 931.66 1076.64 932.32 1078 933 C1078 933.66 1078 934.32 1078 935 C1078.99 935 1079.98 935 1081 935 C1081.103125 935.78375 1081.20625 936.5675 1081.3125 937.375 C1081.77595022 940.33045181 1081.77595022 940.33045181 1085 942 C1085 942.99 1085 943.98 1085 945 C1085.66 945 1086.32 945 1087 945 C1090 948.46153846 1090 948.46153846 1090 951 C1090.66 951 1091.32 951 1092 951 C1092 951.99 1092 952.98 1092 954 C1092.66 954 1093.32 954 1094 954 C1095.2890625 955.4609375 1095.2890625 955.4609375 1096.625 957.375 C1097.29402344 958.31472656 1097.29402344 958.31472656 1097.9765625 959.2734375 C1099 961 1099 961 1099 963 C1099.99 963 1100.98 963 1102 963 C1102 963.99 1102 964.98 1102 966 C1102.66 966 1103.32 966 1104 966 C1107 970.38461538 1107 970.38461538 1107 973 C1107.66 973 1108.32 973 1109 973 C1109 974.32 1109 975.64 1109 977 C1110.32 977.33 1111.64 977.66 1113 978 C1113.33 979.32 1113.66 980.64 1114 982 C1114.66 982 1115.32 982 1116 982 C1120 987.41176471 1120 987.41176471 1120 990 C1120.99 990 1121.98 990 1123 990 C1123.66 991.98 1124.32 993.96 1125 996 C1125.66 996 1126.32 996 1127 996 C1128.01866229 997.65532623 1129.01810813 999.32260138 1130 1001 C1130.99 1001.495 1130.99 1001.495 1132 1002 C1132 1003.32 1132 1004.64 1132 1006 C1132.66 1006 1133.32 1006 1134 1006 C1134 1006.66 1134 1007.32 1134 1008 C1134.99 1008.33 1135.98 1008.66 1137 1009 C1139 1012 1139 1012 1139 1015 C1139.66 1015 1140.32 1015 1141 1015 C1141 1015.66 1141 1016.32 1141 1017 C1141.61875 1017.20625 1142.2375 1017.4125 1142.875 1017.625 C1145.84653645 1019.54775888 1146.13024659 1021.66594527 1147 1025 C1147.66 1025 1148.32 1025 1149 1025 C1149.33 1026.32 1149.66 1027.64 1150 1029 C1150.99 1029 1151.98 1029 1153 1029 C1153.33 1029.66 1153.66 1030.32 1154 1031 C1154.33 712.88 1154.66 394.76 1155 67 C1095.6 67 1036.2 67 975 67 C975 66.34 975 65.68 975 65 C974.34 65 973.68 65 973 65 C973 43.55 973 22.1 973 0 C1122.49 0 1271.98 0 1426 0 C1426 65 1426 65 1425 67 C1366.26 67 1307.52 67 1247 67 C1247 515.14 1247 963.28 1247 1425 C1244.36 1425 1241.72 1425 1239 1425 C1239 1425.99 1239 1426.98 1239 1428 C1233.06 1428.33 1227.12 1428.66 1221 1429 C1221 1429.66 1221 1430.32 1221 1431 C1217.16275828 1431.90413673 1213.62497726 1432.10576898 1209.6875 1432.0625 C1208.61886719 1432.05347656 1207.55023437 1432.04445313 1206.44921875 1432.03515625 C1205.64097656 1432.02355469 1204.83273437 1432.01195312 1204 1432 C1204 1432.66 1204 1433.32 1204 1434 C1175.62 1434 1147.24 1434 1118 1434 C1118 1433.34 1118 1432.68 1118 1432 C1117.34 1432 1116.68 1432 1116 1432 C1116 1431.01 1116 1430.02 1116 1429 C1115.01 1428.67 1114.02 1428.34 1113 1428 C1113 1427.01 1113 1426.02 1113 1425 C1111.68 1425 1110.36 1425 1109 1425 C1109 1423.68 1109 1422.36 1109 1421 C1108.01 1420.67 1107.02 1420.34 1106 1420 C1102 1414.74285714 1102 1414.74285714 1102 1411 C1101.4225 1410.95875 1100.845 1410.9175 1100.25 1410.875 C1096.83120525 1409.54546871 1095.77333355 1407.10333371 1094 1404 C1094 1403.34 1094 1402.68 1094 1402 C1093.34 1402 1092.68 1402 1092 1402 C1092 1401.01 1092 1400.02 1092 1399 C1090.68 1398.34 1089.36 1397.68 1088 1397 C1088 1396.34 1088 1395.68 1088 1395 C1087.01 1395 1086.02 1395 1085 1395 C1084.896875 1394.21625 1084.79375 1393.4325 1084.6875 1392.625 C1084.22404978 1389.66954819 1084.22404978 1389.66954819 1081 1388 C1081 1387.01 1081 1386.02 1081 1385 C1080.34 1385 1079.68 1385 1079 1385 C1078.67 1384.01 1078.34 1383.02 1078 1382 C1077.34 1381.67 1076.68 1381.34 1076 1381 C1076 1380.34 1076 1379.68 1076 1379 C1075.34 1379 1074.68 1379 1074 1379 C1073.67 1377.35 1073.34 1375.7 1073 1374 C1071.68 1374 1070.36 1374 1069 1374 C1069 1372.68 1069 1371.36 1069 1370 C1068.34 1370 1067.68 1370 1067 1370 C1066.67 1369.01 1066.34 1368.02 1066 1367 C1064.9790625 1366.2884375 1064.9790625 1366.2884375 1063.9375 1365.5625 C1062.9784375 1364.7890625 1062.9784375 1364.7890625 1062 1364 C1062 1362.68 1062 1361.36 1062 1360 C1061.34 1360 1060.68 1360 1060 1360 C1060 1359.34 1060 1358.68 1060 1358 C1059.34 1358 1058.68 1358 1058 1358 C1058 1357.34 1058 1356.68 1058 1356 C1057.34 1356 1056.68 1356 1056 1356 C1055.67 1354.35 1055.34 1352.7 1055 1351 C1054.01 1350.67 1053.02 1350.34 1052 1350 C1052 1349.34 1052 1348.68 1052 1348 C1051.34 1348 1050.68 1348 1050 1348 C1046.77008454 1345.27475883 1045.52612155 1342.8661746 1044 1339 C1043.01 1338.34 1042.02 1337.68 1041 1337 C1041 1336.01 1041 1335.02 1041 1334 C1040.34 1334 1039.68 1334 1039 1334 C1039 1333.01 1039 1332.02 1039 1331 C1038.34 1331 1037.68 1331 1037 1331 C1036.67 1329.68 1036.34 1328.36 1036 1327 C1035.34 1327 1034.68 1327 1034 1327 C1033.67 1325.68 1033.34 1324.36 1033 1323 C1032.34 1323 1031.68 1323 1031 1323 C1028.37211797 1320.69064913 1027.12005631 1319.36016893 1026 1316 C1025.319375 1315.34 1024.63875 1314.68 1023.9375 1314 C1022 1312 1022 1312 1022 1309 C1021.34 1309 1020.68 1309 1020 1309 C1020 1308.34 1020 1307.68 1020 1307 C1019.34 1307 1018.68 1307 1018 1307 C1018 1306.34 1018 1305.68 1018 1305 C1017.01 1304.67 1016.02 1304.34 1015 1304 C1013.83203125 1302.4765625 1013.83203125 1302.4765625 1012.8125 1300.625 C1012.29623047 1299.71621094 1012.29623047 1299.71621094 1011.76953125 1298.7890625 C1011 1297 1011 1297 1011 1294 C1010.01 1294 1009.02 1294 1008 1294 C1004 1288.74285714 1004 1288.74285714 1004 1286 C1003.01 1285.67 1002.02 1285.34 1001 1285 C1001 1284.01 1001 1283.02 1001 1282 C999.68 1281.34 998.36 1280.68 997 1280 C997 1279.34 997 1278.68 997 1278 C996.34 1278 995.68 1278 995 1278 C994.34 1276.02 993.68 1274.04 993 1272 C992.34 1272 991.68 1272 991 1272 C990.67 1270.68 990.34 1269.36 990 1268 C989.01 1268 988.02 1268 987 1268 C986.67 1266.02 986.34 1264.04 986 1262 C985.01 1262 984.02 1262 983 1262 C982.67 1261.01 982.34 1260.02 982 1259 C981.34 1258.67 980.68 1258.34 980 1258 C980 1257.01 980 1256.02 980 1255 C978.68 1254.67 977.36 1254.34 976 1254 C975.87625 1252.576875 975.87625 1252.576875 975.75 1251.125 C975.34925077 1247.89538209 975.34925077 1247.89538209 972.9375 1246.625 C972.298125 1246.41875 971.65875 1246.2125 971 1246 C971 1245.01 971 1244.02 971 1243 C970.34 1243 969.68 1243 969 1243 C969 1242.34 969 1241.68 969 1241 C968.34 1241 967.68 1241 967 1241 C967 1240.34 967 1239.68 967 1239 C966.34 1239 965.68 1239 965 1239 C962.6716065 1237.23042094 962.04711194 1236.18416484 961.3125 1233.3125 C961.1578125 1232.1678125 961.1578125 1232.1678125 961 1231 C960.34 1231 959.68 1231 959 1231 C959 1230.01 959 1229.02 959 1228 C958.38125 1227.938125 957.7625 1227.87625 957.125 1227.8125 C956.42375 1227.544375 955.7225 1227.27625 955 1227 C954.28272222 1225.35448038 953.61674772 1223.68577711 953 1222 C952.01 1221.34 951.02 1220.68 950 1220 C950 1218.68 950 1217.36 950 1216 C948.68 1215.67 947.36 1215.34 946 1215 C946 1214.01 946 1213.02 946 1212 C945.01 1211.67 944.02 1211.34 943 1211 C942.67 1210.01 942.34 1209.02 942 1208 C940.52113719 1206.38669512 938.94784856 1204.95364316 937.3125 1203.5 C936 1202 936 1202 936 1199 C935.01 1199 934.02 1199 933 1199 C931.5393715 1196.35261084 931 1195.10551666 931 1192 C930.34 1192 929.68 1192 929 1192 C929 1191.34 929 1190.68 929 1190 C928.34 1190 927.68 1190 927 1190 C927 1189.01 927 1188.02 927 1187 C926.01 1187 925.02 1187 924 1187 C924 1186.01 924 1185.02 924 1184 C923.34 1184 922.68 1184 922 1184 C921.67 1183.01 921.34 1182.02 921 1181 C920.34 1180.67 919.68 1180.34 919 1180 C919 1179.34 919 1178.68 919 1178 C918.34 1178 917.68 1178 917 1178 C917 1177.34 917 1176.68 917 1176 C916.34 1176 915.68 1176 915 1176 C914.34 1173.69 913.68 1171.38 913 1169 C912.01 1169 911.02 1169 910 1169 C910 1167.68 910 1166.36 910 1165 C909.01 1164.67 908.02 1164.34 907 1164 C904.35703248 1161.66796984 903.12775574 1160.38326722 902 1157 C901.34 1156.67 900.68 1156.34 900 1156 C899.67 1155.01 899.34 1154.02 899 1153 C898.01 1152.67 897.02 1152.34 896 1152 C896 1150.68 896 1149.36 896 1148 C895.01 1148 894.02 1148 893 1148 C892.67 1145.69 892.34 1143.38 892 1141 C891.401875 1140.896875 890.80375 1140.79375 890.1875 1140.6875 C887.57514967 1139.86647561 886.60602912 1139.21784974 885 1137 C884.3125 1133.8125 884.3125 1133.8125 884 1131 C883.01 1131 882.02 1131 881 1131 C879.98133771 1129.34467377 878.98189187 1127.67739862 878 1126 C877.01 1125.67 876.02 1125.34 875 1125 C874.32060826 1123.00428677 873.65438441 1121.00405227 873 1119 C872.01 1118.34 871.02 1117.68 870 1117 C870 1116.34 870 1115.68 870 1115 C869.34 1115 868.68 1115 868 1115 C868 1113.35 868 1111.7 868 1110 C866.68 1110 865.36 1110 864 1110 C863.71125 1109.360625 863.4225 1108.72125 863.125 1108.0625 C862.17176549 1105.84793921 862.17176549 1105.84793921 860 1105 C859.67 1104.01 859.34 1103.02 859 1102 C858.2575 1101.2884375 858.2575 1101.2884375 857.5 1100.5625 C856 1099 856 1099 855.5 1096.875 C855.335 1096.25625 855.17 1095.6375 855 1095 C854.01 1094.67 853.02 1094.34 852 1094 C852 1093.34 852 1092.68 852 1092 C851.34 1092 850.68 1092 850 1092 C850 1090.68 850 1089.36 850 1088 C848.35 1087.34 846.7 1086.68 845 1086 C845 1084.68 845 1083.36 845 1082 C844.34 1082 843.68 1082 843 1082 C843 1081.34 843 1080.68 843 1080 C842.34 1080 841.68 1080 841 1080 C838 1075.61538462 838 1075.61538462 838 1073 C837.34 1073 836.68 1073 836 1073 C836 1072.34 836 1071.68 836 1071 C835.01 1070.67 834.02 1070.34 833 1070 C831.96708324 1068.01679982 830.9662501 1066.01652194 830 1064 C829.34 1063.67 828.68 1063.34 828 1063 C828 1062.34 828 1061.68 828 1061 C827.34 1061 826.68 1061 826 1061 C826 1060.34 826 1059.68 826 1059 C825.34 1059 824.68 1059 824 1059 C823.71125 1058.360625 823.4225 1057.72125 823.125 1057.0625 C822.17176549 1054.84793921 822.17176549 1054.84793921 820 1054 C819.375 1051.4375 819.375 1051.4375 819 1049 C818.34 1049 817.68 1049 817 1049 C817 1047.68 817 1046.36 817 1045 C816.34 1045 815.68 1045 815 1045 C815 1044.34 815 1043.68 815 1043 C814.01 1043 813.02 1043 812 1043 C812 1042.01 812 1041.02 812 1040 C811.01 1039.67 810.02 1039.34 809 1039 C807 1036 807 1036 807 1033 C806.34 1033 805.68 1033 805 1033 C805 1032.34 805 1031.68 805 1031 C804.34 1031 803.68 1031 803 1031 C800 1027.53846154 800 1027.53846154 800 1025 C799.34 1025 798.68 1025 798 1025 C797.71125 1024.195625 797.4225 1023.39125 797.125 1022.5625 C796.26737432 1019.8673532 796.26737432 1019.8673532 794 1019 C794 1018.34 794 1017.68 794 1017 C793.01 1016.67 792.02 1016.34 791 1016 C791 1014.68 791 1013.36 791 1012 C790.01 1011.67 789.02 1011.34 788 1011 C787.67 1010.34 787.34 1009.68 787 1009 C786.01 1008.67 785.02 1008.34 784 1008 C782.41415678 1005.25527136 781.17174223 1002.79430782 780.5 999.6875 C780.335 999.130625 780.17 998.57375 780 998 C779.01 997.67 778.02 997.34 777 997 C777 996.34 777 995.68 777 995 C775.68 994.67 774.36 994.34 773 994 C772.87625 993.1028125 772.87625 993.1028125 772.75 992.1875 C772.17982871 989.83663106 772.17982871 989.83663106 770 988.5625 C768 987 768 987 767.25 984.3125 C767.12625 983.1678125 767.12625 983.1678125 767 982 C766.34 982 765.68 982 765 982 C765 981.34 765 980.68 765 980 C764.34 980 763.68 980 763 980 C763 979.34 763 978.68 763 978 C762.34 978 761.68 978 761 978 C760.67 976.35 760.34 974.7 760 973 C759.34 973 758.68 973 758 973 C758 972.34 758 971.68 758 971 C757.34 971 756.68 971 756 971 C756 970.01 756 969.02 756 968 C755.34 968 754.68 968 754 968 C754 967.34 754 966.68 754 966 C753.01 965.67 752.02 965.34 751 965 C749.90234375 963.40625 749.90234375 963.40625 748.9375 961.5 C747.57554472 958.66980932 747.57554472 958.66980932 745 957 C745 955.68 745 954.36 745 953 C744.401875 952.731875 743.80375 952.46375 743.1875 952.1875 C740.93395607 950.96414758 739.57141964 950.02039668 738 948 C737.3125 945.3125 737.3125 945.3125 737 943 C736.38125 942.9175 735.7625 942.835 735.125 942.75 C733 942 733 942 731.75 940.125 C731 938 731 938 731 935 C730.01 935 729.02 935 728 935 C726 932 726 932 726 928 C724.8553125 927.938125 724.8553125 927.938125 723.6875 927.875 C721 927 721 927 719.4375 924.125 C718.963125 923.09375 718.48875 922.0625 718 921 C717.0409375 920.2884375 717.0409375 920.2884375 716.0625 919.5625 C713.49304583 917.61594381 712.44910574 915.52100245 710.94921875 912.7109375 C709.96229991 910.83738582 709.96229991 910.83738582 708.25 908.6875 C707 907 707 907 707 905 C706.34 905 705.68 905 705 905 C705 904.34 705 903.68 705 903 C704.34 903 703.68 903 703 903 C701.97388051 901.34928604 700.97691857 899.68029994 700 898 C699.1646875 897.195625 699.1646875 897.195625 698.3125 896.375 C697 895 697 895 697 892 C695.68 891.67 694.36 891.34 693 891 C693 890.34 693 889.68 693 889 C692.34 889 691.68 889 691 889 C691 887.35 691 885.7 691 884 C690.34 884 689.68 884 689 884 C689 883.34 689 882.68 689 882 C688.34 882 687.68 882 687 882 C686.67 880.35 686.34 878.7 686 877 C684.68 876.67 683.36 876.34 682 876 C682 875.01 682 874.02 682 873 C681.01 872.67 680.02 872.34 679 872 C678.3125 869.9375 678.3125 869.9375 678 868 C677.34 868 676.68 868 676 868 C675.67 866.02 675.34 864.04 675 862 C674.360625 861.896875 673.72125 861.79375 673.0625 861.6875 C672.381875 861.460625 671.70125 861.23375 671 861 C670.67 860.01 670.34 859.02 670 858 C669.34 858 668.68 858 668 858 C667.67 857.01 667.34 856.02 667 855 C666.34 854.67 665.68 854.34 665 854 C665 853.01 665 852.02 665 851 C664.401875 850.731875 663.80375 850.46375 663.1875 850.1875 C660.95762543 848.97699666 659.54509308 848.008621 658 846 C658 844.68 658 843.36 658 842 C657.01 842 656.02 842 655 842 C654.67 840.35 654.34 838.7 654 837 C653.01 837 652.02 837 651 837 C650.87625 835.576875 650.87625 835.576875 650.75 834.125 C650.34925077 830.89538209 650.34925077 830.89538209 647.9375 829.625 C647.298125 829.41875 646.65875 829.2125 646 829 C646 828.34 646 827.68 646 827 C644.68 826.67 643.36 826.34 642 826 C642 824.68 642 823.36 642 822 C641.34 822 640.68 822 640 822 C639.9175 821.21625 639.835 820.4325 639.75 819.625 C639.27193661 816.85250896 639.27193661 816.85250896 636.9375 815.6875 C636.298125 815.460625 635.65875 815.23375 635 815 C635 814.01 635 813.02 635 812 C634.34 812 633.68 812 633 812 C633 811.34 633 810.68 633 810 C632.34 810 631.68 810 631 810 C631 809.01 631 808.02 631 807 C630.01 807 629.02 807 628 807 C628 806.34 628 805.68 628 805 C627.34 805 626.68 805 626 805 C625.9071875 804.1646875 625.9071875 804.1646875 625.8125 803.3125 C624.67045135 800.06205385 622.44372943 798.38412628 620 796 C619.33333333 794.66666667 618.66666667 793.33333333 618 792 C617.01 791.67 616.02 791.34 615 791 C614.67 789.35 614.34 787.7 614 786 C613.34 786 612.68 786 612 786 C611.67 784.68 611.34 783.36 611 782 C610.01 782 609.02 782 608 782 C607.731875 781.236875 607.46375 780.47375 607.1875 779.6875 C606.19741865 777.00940089 606.19741865 777.00940089 604.4375 775.4375 C602.70553268 773.70553268 602.41012318 772.37871446 602 770 C601.34 770 600.68 770 600 770 C596.98295115 766.8000997 595.50109958 764.38462134 595 760 C593.68 760 592.36 760 591 760 C591 758.68 591 757.36 591 756 C590.01 756 589.02 756 588 756 C588 755.01 588 754.02 588 753 C587.34 753 586.68 753 586 753 C585.67 751.68 585.34 750.36 585 749 C584.34 749 583.68 749 583 749 C583 748.01 583 747.02 583 746 C582.360625 745.773125 581.72125 745.54625 581.0625 745.3125 C579 744 579 744 578.25 741.375 C578.1675 740.59125 578.085 739.8075 578 739 C577.01 739 576.02 739 575 739 C574.67 737.02 574.34 735.04 574 733 C573.05125 732.79375 572.1025 732.5875 571.125 732.375 C568 731 568 731 566.8125 728.0625 C566.544375 727.051875 566.27625 726.04125 566 725 C564.02036826 722.50394259 563.10753611 722.03584537 560 721 C559.67 718.69 559.34 716.38 559 714 C558.01 714 557.02 714 556 714 C555.67 712.68 555.34 711.36 555 710 C553.68 709.67 552.36 709.34 551 709 C551 708.01 551 707.02 551 706 C550.34 706 549.68 706 549 706 C548.8453125 705.071875 548.8453125 705.071875 548.6875 704.125 C548.12474627 701.63473516 548.12474627 701.63473516 545 700 C545 699.34 545 698.68 545 698 C544.34 698 543.68 698 543 698 C542.8453125 697.0409375 542.8453125 697.0409375 542.6875 696.0625 C542.460625 695.381875 542.23375 694.70125 542 694 C541.01 693.67 540.02 693.34 539 693 C538.30062468 691.68352881 537.63270867 690.34977849 537 689 C536.34 688.67 535.68 688.34 535 688 C535 686.68 535 685.36 535 684 C534.01 684 533.02 684 532 684 C532 683.01 532 682.02 532 681 C531.34 681 530.68 681 530 681 C530 680.34 530 679.68 530 679 C529.34 679 528.68 679 528 679 C528 678.01 528 677.02 528 676 C527.34 676 526.68 676 526 676 C526 674.68 526 673.36 526 672 C525.01 672 524.02 672 523 672 C523 671.01 523 670.02 523 669 C522.34 669 521.68 669 521 669 C519 666 519 666 519 663 C518.01 662.67 517.02 662.34 516 662 C515.3125 659.9375 515.3125 659.9375 515 658 C514.01 658 513.02 658 512 658 C511.67 657.01 511.34 656.02 511 655 C510.34 654.67 509.68 654.34 509 654 C508.67 653.01 508.34 652.02 508 651 C507.175 650.175 506.35 649.35 505.5 648.5 C503 646 503 646 502 643 C501.34 642.67 500.68 642.34 500 642 C500 641.01 500 640.02 500 639 C499.01 639 498.02 639 497 639 C496.67 637.35 496.34 635.7 496 634 C495.34 634 494.68 634 494 634 C494 633.34 494 632.68 494 632 C493.34 632 492.68 632 492 632 C492 631.01 492 630.02 492 629 C491.34 629 490.68 629 490 629 C490 628.34 490 627.68 490 627 C489.34 627 488.68 627 488 627 C487.67 626.01 487.34 625.02 487 624 C486.01 623.67 485.02 623.34 484 623 C483.67 621.02 483.34 619.04 483 617 C481.68 616.67 480.36 616.34 479 616 C479 614.68 479 613.36 479 612 C478.01 611.67 477.02 611.34 476 611 C476 610.34 476 609.68 476 609 C475.01 608.67 474.02 608.34 473 608 C472.66666667 606.66666667 472.33333333 605.33333333 472 604 C471.01 603.67 470.02 603.34 469 603 C468.67 601.35 468.34 599.7 468 598 C467.01 597.67 466.02 597.34 465 597 C465 596.34 465 595.68 465 595 C464.34 595 463.68 595 463 595 C463 594.01 463 593.02 463 592 C462.34 592 461.68 592 461 592 C460.67 590.68 460.34 589.36 460 588 C459.34 588 458.68 588 458 588 C458 587.34 458 586.68 458 586 C457.34 586 456.68 586 456 586 C452 580.58823529 452 580.58823529 452 578 C450.68 578 449.36 578 448 578 C447.566875 576.5459375 447.566875 576.5459375 447.125 575.0625 C446.35785318 571.89335797 446.35785318 571.89335797 444 571 C443.375 568.4375 443.375 568.4375 443 566 C442.34 566 441.68 566 441 566 C441 565.34 441 564.68 441 564 C440.34 564 439.68 564 439 564 C439 563.34 439 562.68 439 562 C438.34 562 437.68 562 437 562 C436.67 560.35 436.34 558.7 436 557 C435.01 557 434.02 557 433 557 C431.71875 555.3203125 431.71875 555.3203125 430.5 553.125 C428.78740943 550.06209764 428.02993057 549.01995371 425 547 C425 545.68 425 544.36 425 543 C424.34 543 423.68 543 423 543 C423 542.34 423 541.68 423 541 C422.34 541 421.68 541 421 541 C420.67 539.68 420.34 538.36 420 537 C419.34 537 418.68 537 418 537 C418 536.01 418 535.02 418 534 C417.01 533.67 416.02 533.34 415 533 C413.63823419 531.01924973 412.30406884 529.01920337 411 527 C410.34 526.67 409.68 526.34 409 526 C409 524.68 409 523.36 409 522 C408.01 521.67 407.02 521.34 406 521 C406 520.34 406 519.68 406 519 C405.01 518.67 404.02 518.34 403 518 C403 516.68 403 515.36 403 514 C402.34 514 401.68 514 401 514 C401 513.34 401 512.68 401 512 C399.68 511.67 398.36 511.34 397 511 C396.34 508.69 395.68 506.38 395 504 C394.01 504 393.02 504 392 504 C390 501 390 501 390 498 C388.68 497.67 387.36 497.34 386 497 C385.67 495.35 385.34 493.7 385 492 C384.34 492 383.68 492 383 492 C380.375 489.75 380.375 489.75 378 487 C378 485.68 378 484.36 378 483 C377.34 483 376.68 483 376 483 C374.375 481.75 374.375 481.75 373 480 C373 478.68 373 477.36 373 476 C372.34 476 371.68 476 371 476 C371 475.34 371 474.68 371 474 C370.34 474 369.68 474 369 474 C369 473.01 369 472.02 369 471 C368.34 471 367.68 471 367 471 C360 463.09677419 360 463.09677419 360 459 C359.01 459 358.02 459 357 459 C356.05598958 457.2421875 355.11197917 455.484375 354.16796875 453.7265625 C352.95236507 451.69497635 352.95236507 451.69497635 350 450 C350 448.68 350 447.36 350 446 C348.68 445.67 347.36 445.34 346 445 C346 444.01 346 443.02 346 442 C345.01 441.67 344.02 441.34 343 441 C343 440.01 343 439.02 343 438 C342.01 437.67 341.02 437.34 340 437 C339.5359375 435.5459375 339.5359375 435.5459375 339.0625 434.0625 C338.35299526 430.9118364 338.35299526 430.9118364 336.0625 429.9375 C335.381875 429.628125 334.70125 429.31875 334 429 C331 424.71428571 331 424.71428571 331 422 C330.1028125 421.938125 330.1028125 421.938125 329.1875 421.875 C325.90729565 420.56291826 325.45780212 418.10575233 324 415 C323.01 414.34 322.02 413.68 321 413 C320.3125 410.375 320.3125 410.375 320 408 C319.34 408 318.68 408 318 408 C318 407.34 318 406.68 318 406 C317.34 406 316.68 406 316 406 C313 401.61538462 313 401.61538462 313 399 C312.34 399 311.68 399 311 399 C310.67 397.68 310.34 396.36 310 395 C308.68 394.67 307.36 394.34 306 394 C306 393.01 306 392.02 306 391 C305.34 391 304.68 391 304 391 C304 390.01 304 389.02 304 388 C303.01 387.67 302.02 387.34 301 387 C300.30062468 385.68352881 299.63270867 384.34977849 299 383 C298.34 382.67 297.68 382.34 297 382 C297 380.68 297 379.36 297 378 C296.01 378 295.02 378 294 378 C290 372.74285714 290 372.74285714 290 370 C289.01 370 288.02 370 287 370 C286.67 368.68 286.34 367.36 286 366 C285.34 366 284.68 366 284 366 C283.566875 365.05125 283.13375 364.1025 282.6875 363.125 C281.20697799 359.79958063 281.20697799 359.79958063 278 358 C278 356.68 278 355.36 278 354 C277.34 354 276.68 354 276 354 C276 353.34 276 352.68 276 352 C275.01 351.67 274.02 351.34 273 351 C273 350.01 273 349.02 273 348 C272.34 348 271.68 348 271 348 C270.67 347.01 270.34 346.02 270 345 C268.68 344.34 267.36 343.68 266 343 C266 681.91 266 1020.82 266 1370 C310.55 1370 355.1 1370 401 1370 C401 1370.66 401 1371.32 401 1372 C402.98 1372 404.96 1372 407 1372 C407 1372.66 407 1373.32 407 1374 C409.31 1374 411.62 1374 414 1374 C414 1374.66 414 1375.32 414 1376 C414.928125 1376.12375 415.85625 1376.2475 416.8125 1376.375 C420 1377 420 1377 423 1379 C423 1379.66 423 1380.32 423 1381 C424.65 1381.33 426.3 1381.66 428 1382 C428 1382.99 428 1383.98 428 1385 C428.556875 1385.061875 429.11375 1385.12375 429.6875 1385.1875 C433.04264572 1386.36633498 434.74129063 1388.30209714 437 1391 C437 1392.32 437 1393.64 437 1395 C438.32 1395 439.64 1395 441 1395 C441 1396.32 441 1397.64 441 1399 C441.66 1399 442.32 1399 443 1399 C445.61407872 1404.36190101 447.49228528 1409.03435204 448 1415 C448.99 1415 449.98 1415 451 1415 C451.83661862 1417.7907207 452.66942737 1420.58248012 453.5 1423.375 C453.73847656 1424.1690625 453.97695313 1424.963125 454.22265625 1425.78125 C454.56103516 1426.92207031 454.56103516 1426.92207031 454.90625 1428.0859375 C455.11572266 1428.7876709 455.32519531 1429.4894043 455.54101562 1430.21240234 C456 1432 456 1432 456 1434 C305.52 1434 155.04 1434 0 1434 C0 1412.88 0 1391.76 0 1370 C57.75 1370 115.5 1370 175 1370 C175 940.01 175 510.02 175 67 C117.25 67 59.5 67 0 67 C0 44.89 0 22.78 0 0 Z " fill="#CCCCCC" transform="translate(306,307)"/>
</svg>
